<?xml version="1.0" standalone="no"?>
<!DOCTYPE svg PUBLIC "-//W3C//DTD SVG 20010904//EN"
 "http://www.w3.org/TR/2001/REC-SVG-20010904/DTD/svg10.dtd">
<svg version="1.0" xmlns="http://www.w3.org/2000/svg"
 width="500.000000pt" height="500.000000pt" viewBox="0 0 500.000000 500.000000"
 preserveAspectRatio="xMidYMid meet">
<metadata>
Created by potrace 1.14, written by Peter Selinger 2001-2017
</metadata>
<g transform="translate(0.000000,500.000000) scale(0.100000,-0.100000)"
fill="#000000" stroke="none">
<path d="M1589 4366 c-2 -2 -40 -7 -84 -11 -162 -13 -336 -62 -451 -125 -320
-176 -540 -467 -633 -838 -44 -175 -48 -401 -10 -617 12 -72 53 -228 81 -310
110 -324 302 -632 568 -909 125 -130 130 -135 214 -211 43 -38 95 -85 115
-103 20 -18 69 -59 110 -90 40 -31 88 -68 106 -82 17 -14 61 -46 96 -72 35
-26 69 -51 75 -55 5 -4 17 -12 26 -18 9 -5 47 -31 85 -56 113 -77 213 -139
213 -133 0 4 6 2 13 -4 31 -25 216 -120 292 -150 62 -24 84 -19 240 61 181 93
245 129 359 208 60 41 123 82 140 93 64 38 384 298 482 391 153 145 250 245
319 326 17 19 48 57 70 83 73 86 203 280 247 366 23 47 46 88 51 91 5 3 8 8 6
10 -1 2 8 25 20 51 11 26 21 50 21 53 0 3 10 27 21 53 12 25 22 51 23 57 2 5
14 47 29 92 30 94 53 189 63 259 3 27 8 52 10 55 6 11 18 165 18 239 0 71 -8
167 -19 235 -7 41 -18 98 -21 110 -1 6 -9 35 -18 65 -29 110 -108 276 -165
350 -14 19 -34 47 -43 61 -17 27 -133 147 -183 189 -216 183 -447 270 -725
275 -237 4 -481 -62 -685 -183 -33 -20 -62 -38 -65 -41 -17 -19 -130 -101
-139 -101 -6 0 -39 22 -74 48 -60 46 -97 71 -182 123 -121 74 -349 141 -524
154 -41 3 -77 8 -81 10 -4 3 -9 3 -11 1z m246 -176 c136 -34 269 -90 385 -164
70 -44 86 -56 166 -127 28 -26 60 -51 69 -56 16 -10 18 -70 18 -1010 0 -550
-3 -1005 -7 -1011 -9 -15 -152 -16 -161 -2 -11 18 -73 12 -85 -9 -30 -56 11
-115 88 -128 26 -4 52 -6 57 -4 20 6 95 4 102 -2 8 -8 6 -744 -2 -757 -6 -10
-127 47 -133 62 -2 4 -8 8 -13 8 -8 0 -149 89 -194 122 -87 64 -107 78 -114
78 -5 0 -11 4 -13 8 -1 4 -23 23 -48 42 -24 19 -56 45 -70 57 -14 12 -36 31
-50 43 -171 142 -488 478 -490 517 0 6 -3 13 -8 15 -9 4 -107 140 -107 150 0
3 -10 18 -22 32 -13 14 -20 26 -16 26 3 0 -1 8 -9 18 -28 31 -186 365 -178
374 2 2 -2 14 -9 27 -28 52 -84 274 -97 386 -4 28 -8 53 -10 57 -21 36 -21
469 0 528 3 8 7 31 10 50 3 19 12 56 20 83 8 26 12 47 9 47 -3 0 -1 6 4 13 6
6 13 26 17 42 10 40 86 198 100 207 6 4 7 8 3 8 -4 0 4 12 18 27 14 15 25 31
25 35 0 10 42 60 90 107 40 39 118 91 136 91 7 0 25 5 41 11 15 6 48 13 73 16
24 2 46 6 49 8 2 3 63 3 135 2 93 -3 157 -10 221 -27z m1885 -203 c58 -32 103
-59 115 -70 7 -7 27 -23 45 -37 89 -70 143 -134 217 -260 75 -128 77 -177 10
-205 -28 -11 -36 -11 -59 3 -15 9 -35 32 -44 52 -24 51 -85 151 -109 178 -80
90 -141 140 -236 195 -51 30 -69 60 -62 100 10 51 70 72 123 44z m-265 -1079
c57 -50 25 -140 -49 -140 -87 0 -106 119 -25 151 36 15 46 13 74 -11z"/>
<path d="M1589 3030 c-95 -37 -169 -139 -171 -238 -4 -130 45 -218 152 -274
37 -19 60 -23 130 -23 95 0 120 10 187 72 64 59 86 113 86 208 0 61 -5 89 -21
120 -50 98 -150 157 -257 154 -34 -1 -82 -10 -106 -19z m294 -109 c18 -3 46
-66 40 -91 -21 -85 -153 -76 -153 11 0 67 37 93 113 80z"/>
</g>
</svg>
